<svg width="24" height="25" viewBox="0 0 24 25" fill="none" xmlns="http://www.w3.org/2000/svg">
<rect x="0.5" y="0.844727" width="23" height="23" rx="3.5" stroke="#2D313E"/>
<path fillRule="evenodd" clipRule="evenodd" d="M12.0068 13.9679L16.048 18.0098C16.2624 18.2243 16.5533 18.3447 16.8566 18.3447C17.1598 18.3447 17.4507 18.2243 17.6651 18.0098C17.8795 17.7954 18 17.5045 18 17.2013C18 16.898 17.8795 16.6072 17.6651 16.3927L13.6224 12.3516L17.6643 8.31039C17.7705 8.20422 17.8546 8.07817 17.9121 7.93946C17.9695 7.80075 17.999 7.65209 17.999 7.50197C17.9989 7.35184 17.9693 7.2032 17.9118 7.06451C17.8544 6.92583 17.7701 6.79983 17.6639 6.6937C17.5578 6.58757 17.4317 6.50339 17.293 6.44597C17.1543 6.38856 17.0056 6.35902 16.8555 6.35906C16.7054 6.35909 16.5567 6.3887 16.4181 6.44618C16.2794 6.50366 16.1534 6.5879 16.0472 6.69408L12.0068 10.7353L7.96566 6.69408C7.86026 6.58485 7.73417 6.49771 7.59474 6.43774C7.45531 6.37777 7.30533 6.34616 7.15355 6.34477C7.00177 6.34338 6.85124 6.37224 6.71073 6.42964C6.57023 6.48705 6.44256 6.57187 6.33518 6.67915C6.2278 6.78642 6.14287 6.91401 6.08533 7.05446C6.02778 7.19491 5.99879 7.34542 6.00004 7.4972C6.00129 7.64898 6.03275 7.79898 6.09259 7.93847C6.15243 8.07796 6.23945 8.20414 6.34858 8.30963L10.3913 12.3516L6.34934 16.3927C6.1349 16.6072 6.01443 16.898 6.01443 17.2013C6.01443 17.5045 6.1349 17.7954 6.34934 18.0098C6.56378 18.2243 6.85462 18.3447 7.15788 18.3447C7.46114 18.3447 7.75198 18.2243 7.96642 18.0098L12.0068 13.9671V13.9679Z" fill="#2D313E"/>
</svg> 