<svg xmlns="http://www.w3.org/2000/svg" width="24" height="24" viewBox="0 0 24 24" fill="none">
<path d="M4 6C4 5.46957 4.21071 4.96086 4.58579 4.58579C4.96086 4.21071 5.46957 4 6 4H16C16.7072 4 17.3855 4.28095 17.8856 4.78105C18.3857 5.28115 18.6667 5.95942 18.6667 6.66667V7.024C19.072 7.25804 19.4087 7.59467 19.6427 8.00004C19.8768 8.40541 20 8.86525 20 9.33333V17.3333C20 18.0406 19.719 18.7189 19.219 19.219C18.7189 19.719 18.0406 20 17.3333 20H7.33333C6.44928 20 5.60143 19.6488 4.97631 19.0237C4.35119 18.3986 4 17.5507 4 16.6667V6ZM5.33333 6C5.33333 6.17681 5.40357 6.34638 5.5286 6.4714C5.65362 6.59643 5.82319 6.66667 6 6.66667H17.3333C17.3333 6.31304 17.1929 5.97391 16.9428 5.72386C16.6928 5.47381 16.3536 5.33333 16 5.33333H6C5.82319 5.33333 5.65362 5.40357 5.5286 5.5286C5.40357 5.65362 5.33333 5.82319 5.33333 6ZM15.3333 12C15.1565 12 14.987 12.0702 14.8619 12.1953C14.7369 12.3203 14.6667 12.4899 14.6667 12.6667C14.6667 12.8435 14.7369 13.013 14.8619 13.1381C14.987 13.2631 15.1565 13.3333 15.3333 13.3333H16.6667C16.8435 13.3333 17.013 13.2631 17.1381 13.1381C17.2631 13.013 17.3333 12.8435 17.3333 12.6667C17.3333 12.4899 17.2631 12.3203 17.1381 12.1953C17.013 12.0702 16.8435 12 16.6667 12H15.3333Z" fill="#1A1C24"/>
</svg>