<svg xmlns="http://www.w3.org/2000/svg" width="30" height="30" viewBox="0 0 30 30" fill="none">
<path d="M18.5567 6.25073H18.503L18.1585 6.57271C21.7267 7.53865 23.4571 9.04838 23.4571 9.04838C21.1524 7.97512 19.085 7.43848 17.01 7.21667C15.5092 7.00202 14.016 7.1165 12.745 7.21667H12.4005C11.5888 7.21667 9.866 7.53865 7.56126 8.39727C6.75727 8.7264 6.29785 8.94105 6.29785 8.94105C6.29785 8.94105 8.02068 7.33116 11.8262 6.46538L11.5965 6.25073C11.5965 6.25073 8.71746 6.15056 5.60873 8.29709C5.60873 8.29709 2.5 13.3558 2.5 19.595C2.5 19.595 4.22281 22.3927 8.94717 22.5C8.94717 22.5 9.63629 21.6414 10.3331 20.8901C7.68377 20.1388 6.65007 18.6291 6.65007 18.6291C6.65007 18.6291 6.87978 18.7365 7.22434 18.9511H7.32388C7.37749 18.9511 7.40046 18.9725 7.42343 19.0011V19.0083C7.45406 19.037 7.47703 19.0584 7.52297 19.0584C8.08958 19.2802 8.6562 19.4948 9.12328 19.7024C9.92726 20.0244 10.9609 20.3535 12.2244 20.5681C13.8247 20.7828 15.6623 20.8901 17.7527 20.5681C18.7864 20.3535 19.8201 20.1388 20.8538 19.7096C21.5276 19.3876 22.3545 19.0656 23.258 18.5217C23.258 18.5217 22.2244 20.0315 19.4602 20.7828C20.0268 21.5341 20.8308 22.3927 20.8308 22.3927C25.5551 22.2997 27.3928 19.4948 27.5 19.6165C27.5 13.3844 24.3759 8.31856 24.3759 8.31856C21.5582 6.36521 18.9242 6.29366 18.4571 6.29366L18.5567 6.25073ZM18.8476 13.3558C20.0574 13.3558 21.0375 14.3217 21.0375 15.5023C21.0375 16.6901 20.0574 17.656 18.8476 17.656C17.6378 17.656 16.6577 16.6901 16.6577 15.5095C16.6654 14.3217 17.6455 13.3558 18.8476 13.3558ZM11.0222 13.3558C12.2244 13.3558 13.2045 14.3217 13.2045 15.5023C13.2045 16.6901 12.2243 17.656 11.0146 17.656C9.81241 17.656 8.82466 16.6901 8.82466 15.5095C8.83231 14.3217 9.81241 13.3558 11.0222 13.3558Z" fill="#C6C6C6"/>
</svg>