<svg xmlns="http://www.w3.org/2000/svg" width="70" height="68" viewBox="0 0 70 68" fill="none">
  <g filter="url(#filter0_d_127_1719)">
    <path d="M54.573 54.6518C55.6839 54.6518 56.752 54.6374 57.82 54.6554C58.6237 54.6698 59.1559 55.2064 59.1667 55.9627C59.1774 56.6865 58.6844 57.2483 57.9665 57.3203C57.7914 57.3383 57.6093 57.3311 57.4307 57.3311C42.4746 57.3311 27.5186 57.3311 12.5625 57.3311C12.3696 57.3311 12.1696 57.3419 11.9803 57.3167C11.2873 57.2231 10.823 56.6649 10.8337 55.9591C10.8444 55.2532 11.3409 54.6338 12.0374 54.6842C12.9662 54.7527 13.4127 54.4574 13.7985 53.5499C14.7057 51.4107 17.2026 50.1467 19.4458 50.5032C19.6387 50.5321 19.9137 50.3448 20.0781 50.1791C22.2427 48.0112 25.6683 48.0148 27.74 50.244C28.1615 50.6977 28.4223 51.3063 28.7902 51.8213C28.9009 51.9797 29.101 52.1562 29.276 52.1742C30.8691 52.3182 32.0979 53.0529 32.9873 54.3889C33.0731 54.5186 33.2945 54.6302 33.4553 54.6338C34.9805 54.6518 36.5058 54.6518 38.031 54.6338C38.2096 54.6338 38.4382 54.5186 38.5525 54.3781C39.5027 53.2041 40.7136 52.4839 42.1781 52.1562C42.3853 52.1094 42.6175 51.9005 42.7211 51.706C44.007 49.2212 46.5253 47.9176 49.3222 48.3101C51.8333 48.663 53.9194 50.7301 54.423 53.3734C54.498 53.7731 54.523 54.1801 54.5766 54.6446L54.573 54.6518Z" fill="url(#paint0_linear_127_1719)"/>
    <path d="M24.9413 46.2408C24.9022 46.219 24.8865 46.2163 24.8839 46.2081C24.2471 44.1409 23.3572 42.1445 23.2372 39.9327C23.1484 38.2664 23.626 36.8155 24.7978 35.6346C25.599 34.8273 26.3689 33.9846 27.1674 33.1719C27.3736 32.9619 27.4441 32.7628 27.4101 32.4601C26.9039 27.8892 27.3762 23.4411 28.9812 19.143C29.8816 16.7294 31.1421 14.5531 32.9506 12.7504C33.637 12.0685 34.292 11.354 34.9497 10.6667C34.9993 10.6749 35.0306 10.6667 35.0436 10.6804C36.0223 11.7086 37.0349 12.6985 37.9665 13.7731C39.6055 15.6658 40.6624 17.9185 41.4297 20.3184C42.698 24.2811 43.0529 28.3447 42.5884 32.4874C42.5571 32.7601 42.6093 32.9455 42.7998 33.1392C43.5749 33.9246 44.3108 34.751 45.0963 35.5201C46.4299 36.8264 46.9388 38.4355 46.7274 40.29C46.6309 41.1436 46.4299 41.9945 46.2029 42.8236C45.9132 43.8818 45.5504 44.9181 45.2164 45.9627C45.1877 46.0527 45.1485 46.1399 45.0937 46.279L44.8014 45.9736C43.3269 44.4327 41.8498 42.8918 40.3805 41.3454C40.2161 41.1736 40.0517 41.1054 39.8221 41.1082C36.6095 41.1164 33.3969 41.1164 30.1869 41.1082C29.9416 41.1082 29.772 41.1845 29.5997 41.3645C28.1409 42.9054 26.669 44.4327 25.2023 45.9681L24.9387 46.2436L24.9413 46.2408ZM36.7139 23.182C35.7665 22.1893 34.2503 22.1839 33.2951 23.1711C32.3452 24.1502 32.3321 25.7566 33.2664 26.752C34.2007 27.7474 35.7822 27.7529 36.7243 26.7629C37.6638 25.7756 37.656 24.172 36.7139 23.182Z" fill="url(#paint1_linear_127_1719)"/>
    <path d="M31.9959 43.833C34.0029 43.8305 36.016 43.828 38.0012 43.823C38.4975 46.6385 37.0334 48.9536 34.9986 51.191C33.1219 48.931 31.4872 46.6636 31.9959 43.833Z" fill="url(#paint2_linear_127_1719)"/>
  </g>
  <defs>
    <filter id="filter0_d_127_1719" x="-5" y="-6" width="80" height="80" filterUnits="userSpaceOnUse" color-interpolation-filters="sRGB">
      <feFlood flood-opacity="0" result="BackgroundImageFix"/>
      <feColorMatrix in="SourceAlpha" type="matrix" values="0 0 0 0 0 0 0 0 0 0 0 0 0 0 0 0 0 0 127 0" result="hardAlpha"/>
      <feOffset/>
      <feGaussianBlur stdDeviation="5"/>
      <feColorMatrix type="matrix" values="0 0 0 0 0.388235 0 0 0 0 0.87451 0 0 0 0 0.85098 0 0 0 0.25 0"/>
      <feBlend mode="normal" in2="BackgroundImageFix" result="effect1_dropShadow_127_1719"/>
      <feBlend mode="normal" in="SourceGraphic" in2="effect1_dropShadow_127_1719" result="shape"/>
    </filter>
    <linearGradient id="paint0_linear_127_1719" x1="10.8335" y1="10.6667" x2="57.4714" y2="58.9703" gradientUnits="userSpaceOnUse">
      <stop stop-color="#24C3BC"/>
      <stop offset="1" stop-color="#ADFFFB"/>
    </linearGradient>
    <linearGradient id="paint1_linear_127_1719" x1="10.8335" y1="10.6667" x2="57.4714" y2="58.9703" gradientUnits="userSpaceOnUse">
      <stop stop-color="#24C3BC"/>
      <stop offset="1" stop-color="#ADFFFB"/>
    </linearGradient>
    <linearGradient id="paint2_linear_127_1719" x1="10.8335" y1="10.6667" x2="57.4714" y2="58.9703" gradientUnits="userSpaceOnUse">
      <stop stop-color="#24C3BC"/>
      <stop offset="1" stop-color="#ADFFFB"/>
    </linearGradient>
  </defs>
</svg>