<svg width="16" height="16" viewBox="0 0 16 16" fill="none" xmlns="http://www.w3.org/2000/svg">
<path fill-rule="evenodd" clip-rule="evenodd" d="M10.7566 3.15184L11.9766 4.37184C13.7693 6.16517 14.6653 7.06117 14.6653 8.1745C14.6653 9.2885 13.7693 10.1845 11.9766 11.9772C10.1833 13.7705 9.28728 14.6665 8.17328 14.6665C7.05994 14.6665 6.16328 13.7705 4.37061 11.9778L3.15061 10.7578C2.12061 9.72717 1.60528 9.2125 1.41394 8.54384C1.22194 7.87517 1.38594 7.16517 1.71394 5.74584L1.90261 4.92717C2.17794 3.7325 2.31594 3.13517 2.72461 2.72584C3.13394 2.31717 3.73128 2.17917 4.92594 1.90384L5.74461 1.7145C7.16461 1.38717 7.87394 1.22317 8.54261 1.4145C9.21128 1.6065 9.72661 2.12184 10.7566 3.15184ZM7.42994 9.55184C6.98128 9.10384 6.98461 8.45984 7.25328 7.94984C7.18676 7.85377 7.156 7.73743 7.16632 7.62104C7.17665 7.50465 7.22741 7.39555 7.3098 7.31269C7.39219 7.22983 7.50099 7.17844 7.61732 7.16745C7.73365 7.15645 7.85016 7.18655 7.94661 7.2525C8.17328 7.1325 8.42194 7.0685 8.66994 7.07117C8.80255 7.07241 8.92924 7.12627 9.02213 7.22092C9.11502 7.31556 9.16651 7.44323 9.16528 7.57584C9.16404 7.70845 9.11017 7.83513 9.01553 7.92802C8.92089 8.02092 8.79322 8.07241 8.66061 8.07117C8.50624 8.07687 8.36035 8.14323 8.25461 8.25584C7.99661 8.51384 8.06394 8.7725 8.13661 8.84517C8.20994 8.91784 8.46794 8.98517 8.72594 8.72717C9.24861 8.2045 10.1513 8.03117 10.7293 8.60917C11.1779 9.05784 11.1746 9.70184 10.9059 10.2118C10.972 10.3079 11.0025 10.4241 10.9919 10.5403C10.9814 10.6564 10.9307 10.7652 10.8484 10.8479C10.7661 10.9306 10.6575 10.9819 10.5414 10.9929C10.4253 11.004 10.309 10.9741 10.2126 10.9085C9.91343 11.0726 9.56642 11.1273 9.23128 11.0632C9.10132 11.0365 8.98729 10.9592 8.91428 10.8485C8.84126 10.7377 8.81524 10.6025 8.84194 10.4725C8.86864 10.3425 8.94587 10.2285 9.05664 10.1555C9.16741 10.0825 9.30265 10.0565 9.43261 10.0832C9.55061 10.1078 9.74128 10.0692 9.90461 9.90584C10.1626 9.64717 10.0953 9.38917 10.0226 9.3165C9.94928 9.24384 9.69128 9.1765 9.43328 9.4345C8.91061 9.95717 8.00794 10.1305 7.42994 9.55184ZM6.67928 6.86184C6.80307 6.738 6.90126 6.59099 6.96824 6.42921C7.03522 6.26743 7.06967 6.09404 7.06964 5.91894C7.06961 5.74384 7.03509 5.57046 6.96806 5.4087C6.90102 5.24694 6.80278 5.09996 6.67894 4.97617C6.55511 4.85238 6.4081 4.75419 6.24632 4.68721C6.08453 4.62023 5.91114 4.58577 5.73604 4.5858C5.56094 4.58583 5.38756 4.62035 5.2258 4.68739C5.06404 4.75443 4.91707 4.85267 4.79328 4.9765C4.54326 5.2266 4.40285 5.56578 4.40291 5.91941C4.40297 6.27304 4.54351 6.61216 4.79361 6.86217C5.04371 7.11218 5.38288 7.2526 5.73651 7.25254C6.09014 7.25248 6.42927 7.11194 6.67928 6.86184Z" fill="#277EFF"/>
</svg>
