<svg width="30" height="30" viewBox="0 0 30 30" fill="none" xmlns="http://www.w3.org/2000/svg">
<path fillRule="evenodd" clipRule="evenodd" d="M8.33333 10.5C8.33333 8.70979 9.03571 6.9929 10.286 5.72703C11.5362 4.46116 13.2319 3.75 15 3.75C16.7681 3.75 18.4638 4.46116 19.714 5.72703C20.9643 6.9929 21.6667 8.70979 21.6667 10.5H22.7778C23.3671 10.5 23.9324 10.7371 24.3491 11.159C24.7659 11.581 25 12.1533 25 12.75V24C25 24.5967 24.7659 25.169 24.3491 25.591C23.9324 26.0129 23.3671 26.25 22.7778 26.25H7.22222C6.63285 26.25 6.06762 26.0129 5.65087 25.591C5.23413 25.169 5 24.5967 5 24V12.75C5 12.1533 5.23413 11.581 5.65087 11.159C6.06762 10.7371 6.63285 10.5 7.22222 10.5H8.33333ZM15 6C16.1787 6 17.3092 6.47411 18.1427 7.31802C18.9762 8.16193 19.4444 9.30653 19.4444 10.5H10.5556C10.5556 9.30653 11.0238 8.16193 11.8573 7.31802C12.6908 6.47411 13.8213 6 15 6ZM17.2222 17.25C17.2222 17.6449 17.1195 18.0329 16.9245 18.375C16.7294 18.717 16.4489 19.001 16.1111 19.1985V20.625C16.1111 20.9234 15.994 21.2095 15.7857 21.4205C15.5773 21.6315 15.2947 21.75 15 21.75C14.7053 21.75 14.4227 21.6315 14.2143 21.4205C14.006 21.2095 13.8889 20.9234 13.8889 20.625V19.1985C13.4653 18.9508 13.1342 18.5686 12.947 18.111C12.7598 17.6534 12.727 17.1461 12.8536 16.6676C12.9802 16.1892 13.2592 15.7665 13.6473 15.465C14.0353 15.1635 14.5108 15 15 15C15.5894 15 16.1546 15.2371 16.5713 15.659C16.9881 16.081 17.2222 16.6533 17.2222 17.25Z" fill="#C6C6C6"/>
</svg> 