<svg xmlns="http://www.w3.org/2000/svg" width="24" height="24" viewBox="0 0 24 24" fill="none">
<path fill-rule="evenodd" clip-rule="evenodd" d="M5.07503 7.75C5.07503 5.95979 5.77741 4.2429 7.02765 2.97703C8.2779 1.71116 9.97359 1 11.7417 1C13.5098 1 15.2055 1.71116 16.4557 2.97703C17.706 4.2429 18.4084 5.95979 18.4084 7.75H19.5195C20.1088 7.75 20.6741 7.98705 21.0908 8.40901C21.5076 8.83097 21.7417 9.40326 21.7417 10V21.25C21.7417 21.8467 21.5076 22.419 21.0908 22.841C20.6741 23.2629 20.1088 23.5 19.5195 23.5H3.96392C3.37455 23.5 2.80932 23.2629 2.39257 22.841C1.97583 22.419 1.7417 21.8467 1.7417 21.25V10C1.7417 9.40326 1.97583 8.83097 2.39257 8.40901C2.80932 7.98705 3.37455 7.75 3.96392 7.75H5.07503ZM11.7417 3.25C12.9204 3.25 14.0509 3.72411 14.8844 4.56802C15.7179 5.41193 16.1861 6.55653 16.1861 7.75H7.29726C7.29726 6.55653 7.76551 5.41193 8.599 4.56802C9.4325 3.72411 10.563 3.25 11.7417 3.25ZM13.9639 14.5C13.9639 14.8949 13.8612 15.2829 13.6662 15.625C13.4711 15.967 13.1906 16.251 12.8528 16.4485V17.875C12.8528 18.1734 12.7357 18.4595 12.5274 18.6705C12.319 18.8815 12.0364 19 11.7417 19C11.447 19 11.1644 18.8815 10.956 18.6705C10.7477 18.4595 10.6306 18.1734 10.6306 17.875V16.4485C10.207 16.2008 9.87589 15.8186 9.68871 15.361C9.50152 14.9034 9.46869 14.3961 9.5953 13.9176C9.72191 13.4392 10.0009 13.0165 10.389 12.715C10.777 12.4135 11.2525 12.25 11.7417 12.25C12.3311 12.25 12.8963 12.4871 13.313 12.909C13.7298 13.331 13.9639 13.9033 13.9639 14.5Z" fill="#C6C6C6"/>
</svg>