<svg xmlns="http://www.w3.org/2000/svg" width="30" height="30" viewBox="0 0 30 30" fill="none">
<path d="M16.6015 14.3749C16.6015 18.1718 13.4447 21.25 9.55061 21.25C5.65648 21.25 2.5 18.1728 2.5 14.3749C2.5 10.577 5.65672 7.5 9.55061 7.5C13.4445 7.5 16.6015 10.5779 16.6015 14.3749ZM24.3363 14.3749C24.3363 17.9492 22.7579 20.8466 20.8109 20.8466C18.864 20.8466 17.2855 17.9483 17.2855 14.3749C17.2855 10.8015 18.864 7.9032 20.8109 7.9032C22.7579 7.9032 24.3363 10.8015 24.3363 14.3749ZM27.5 14.3749C27.5 17.5773 26.9448 20.1732 26.2601 20.1732C25.5753 20.1732 25.0201 17.5764 25.0201 14.3749C25.0201 11.1734 25.5753 8.57653 26.2603 8.57653C26.9453 8.57653 27.5 11.1727 27.5 14.3749Z" fill="#C6C6C6"/>
</svg>