<svg width="16" height="16" viewBox="0 0 16 16" fill="none" xmlns="http://www.w3.org/2000/svg">
<path fill-rule="evenodd" clip-rule="evenodd" d="M6.26858 1.93138C6.73218 1.53634 7.31705 1.31191 7.92591 1.29541C8.53478 1.27892 9.13094 1.47135 9.61525 1.84071L9.72858 1.93138L9.97925 2.14471C10.1617 2.30047 10.3828 2.40411 10.6192 2.44471L10.7379 2.45938L11.0666 2.48605C11.6754 2.53463 12.2491 2.79074 12.6918 3.21157C13.1345 3.6324 13.4193 4.19243 13.4986 4.79805L13.5126 4.93138L13.5392 5.26071C13.5581 5.49959 13.641 5.72897 13.7792 5.92471L13.8526 6.01938L14.0672 6.27005C14.4623 6.73365 14.6867 7.31852 14.7032 7.92738C14.7197 8.53624 14.5273 9.1324 14.1579 9.61671L14.0672 9.73005L13.8532 9.98071C13.6975 10.1632 13.5939 10.3843 13.5532 10.6207L13.5386 10.7394L13.5126 11.068C13.464 11.6769 13.2079 12.2506 12.7871 12.6933C12.3662 13.136 11.8062 13.4207 11.2006 13.5L11.0666 13.514L10.7379 13.5407C10.499 13.5596 10.2697 13.6425 10.0739 13.7807L9.97925 13.8547L9.72791 14.068C9.26439 14.4632 8.67956 14.6877 8.0707 14.7044C7.46184 14.721 6.86564 14.5286 6.38125 14.1594L6.26858 14.0687L6.01792 13.8547C5.83545 13.699 5.61435 13.5953 5.37792 13.5547L5.25925 13.5407L4.93058 13.514C4.32173 13.4655 3.74802 13.2094 3.30534 12.7885C2.86267 12.3677 2.57788 11.8077 2.49858 11.202L2.48458 11.0687L2.45791 10.7394C2.43903 10.5005 2.35613 10.2711 2.21791 10.0754L2.14391 9.98071L1.92991 9.72938C1.53487 9.26578 1.31044 8.68091 1.29395 8.07205C1.27745 7.46319 1.46989 6.86702 1.83925 6.38271L1.92991 6.27005L2.14325 6.01938C2.299 5.83692 2.40264 5.61582 2.44325 5.37938L2.45791 5.26071L2.48458 4.93205C2.53316 4.3232 2.78927 3.74948 3.2101 3.30681C3.63093 2.86414 4.19097 2.57935 4.79658 2.50005L4.92991 2.48605L5.25925 2.45938C5.49813 2.4405 5.7275 2.35759 5.92325 2.21938L6.01792 2.14538L6.26858 1.93138ZM9.66525 8.66671C9.40003 8.66671 9.14568 8.77207 8.95814 8.95961C8.77061 9.14714 8.66525 9.4015 8.66525 9.66671C8.66525 9.93193 8.77061 10.1863 8.95814 10.3738C9.14568 10.5614 9.40003 10.6667 9.66525 10.6667C9.93046 10.6667 10.1848 10.5614 10.3724 10.3738C10.5599 10.1863 10.6652 9.93193 10.6652 9.66671C10.6652 9.4015 10.5599 9.14714 10.3724 8.95961C10.1848 8.77207 9.93046 8.66671 9.66525 8.66671ZM9.52725 5.52871L5.52725 9.52871C5.46357 9.59021 5.41279 9.66377 5.37785 9.74511C5.34291 9.82645 5.32452 9.91393 5.32375 10.0024C5.32298 10.091 5.33985 10.1788 5.37337 10.2607C5.40689 10.3426 5.45639 10.417 5.51899 10.4796C5.58158 10.5422 5.65601 10.5917 5.73795 10.6253C5.81988 10.6588 5.90766 10.6756 5.99618 10.6749C6.0847 10.6741 6.17218 10.6557 6.25352 10.6208C6.33485 10.5858 6.40842 10.5351 6.46991 10.4714L10.4699 6.47138C10.5914 6.34564 10.6586 6.17724 10.657 6.00245C10.6555 5.82765 10.5854 5.66044 10.4618 5.53683C10.3382 5.41323 10.171 5.34312 9.99618 5.3416C9.82138 5.34008 9.65298 5.40727 9.52725 5.52871ZM6.33191 5.33338C6.0667 5.33338 5.81234 5.43874 5.62481 5.62627C5.43727 5.81381 5.33191 6.06816 5.33191 6.33338C5.33191 6.5986 5.43727 6.85295 5.62481 7.04049C5.81234 7.22802 6.0667 7.33338 6.33191 7.33338C6.59713 7.33338 6.85149 7.22802 7.03902 7.04049C7.22656 6.85295 7.33191 6.5986 7.33191 6.33338C7.33191 6.06816 7.22656 5.81381 7.03902 5.62627C6.85149 5.43874 6.59713 5.33338 6.33191 5.33338Z" fill="#6CFF7B"/>
</svg>
