<svg xmlns="http://www.w3.org/2000/svg" width="28" height="28" viewBox="0 0 28 28" fill="none">
<path d="M7.75 9.625C7.75 9.10723 8.16973 8.6875 8.6875 8.6875H19.3125C19.8303 8.6875 20.25 9.10723 20.25 9.625C20.25 10.1428 19.8303 10.5625 19.3125 10.5625H8.6875C8.16973 10.5625 7.75 10.1428 7.75 9.625Z" fill="#C6C6C6"/>
<path d="M7.75 14C7.75 13.4822 8.16973 13.0625 8.6875 13.0625H19.3125C19.8303 13.0625 20.25 13.4822 20.25 14C20.25 14.5178 19.8303 14.9375 19.3125 14.9375H8.6875C8.16973 14.9375 7.75 14.5178 7.75 14Z" fill="#C6C6C6"/>
<path d="M7.75 18.375C7.75 17.8572 8.16973 17.4375 8.6875 17.4375H19.3125C19.8303 17.4375 20.25 17.8572 20.25 18.375C20.25 18.8928 19.8303 19.3125 19.3125 19.3125H8.6875C8.16973 19.3125 7.75 18.8928 7.75 18.375Z" fill="#C6C6C6"/>
<path fillRule="evenodd" clipRule="evenodd" d="M14 25.25C20.2132 25.25 25.25 20.2132 25.25 14C25.25 7.7868 20.2132 2.75 14 2.75C7.7868 2.75 2.75 7.7868 2.75 14C2.75 20.2132 7.7868 25.25 14 25.25ZM14 27.75C21.5939 27.75 27.75 21.5939 27.75 14C27.75 6.40608 21.5939 0.25 14 0.25C6.40608 0.25 0.25 6.40608 0.25 14C0.25 21.5939 6.40608 27.75 14 27.75Z" fill="#C6C6C6"/>
</svg>