<svg xmlns="http://www.w3.org/2000/svg" width="118" height="118" viewBox="0 0 118 118" fill="none">
  <g filter="url(#filter0_d_136_2890)">
    <path d="M25.25 73.897C25.7318 72.7052 26.2328 71.5194 26.694 70.3188C28.6376 65.263 30.5679 60.2028 32.5041 55.1441C32.9668 53.9332 33.2453 53.808 34.486 54.2485C35.1667 54.49 35.846 54.7331 36.5931 54.9983C36.4796 55.3268 36.3794 55.6302 36.2719 55.9293C35.121 59.1039 33.9673 62.2785 32.8165 65.4516C32.7723 65.5753 32.7236 65.699 32.6898 65.8257C32.5395 66.3855 32.7678 66.8628 33.2733 67.0602C33.7772 67.2576 34.2826 67.0602 34.514 66.5137C34.7939 65.8478 35.0238 65.1599 35.2699 64.4793C36.2483 61.7791 37.2237 59.0774 38.2036 56.3756C38.2847 56.1532 38.3819 55.9367 38.4924 55.6656C39.6123 56.0707 40.7115 56.4375 41.7843 56.8677C42.3987 57.1137 42.5225 57.6204 42.2293 58.3644C41.0799 61.2811 39.9232 64.1965 38.7709 67.1132C37.4256 70.5191 36.0803 73.925 34.7365 77.3323C34.2723 78.5079 33.9142 78.6537 32.731 78.1455C30.6357 77.2439 28.5345 76.3542 26.448 75.4334C26.0206 75.2478 25.6478 74.94 25.25 74.688C25.25 74.4244 25.25 74.1607 25.25 73.897Z" fill="url(#paint0_linear_136_2890)"/>
    <path d="M52.4156 92.75C51.3812 92.3523 50.5914 91.7262 50.3321 90.5801C50.307 90.4726 50.1479 90.3311 50.0359 90.3164C48.6317 90.1293 47.8507 89.2985 47.5486 87.9196C46.1591 87.7605 45.1836 87.0947 44.8447 85.6569C44.8167 85.5405 44.5441 85.4389 44.3717 85.408C43.2725 85.2091 42.5254 84.586 42.2101 83.5283C41.9036 82.503 42.1497 81.5764 42.9203 80.8074C43.4803 80.2491 44.0328 79.6819 44.6001 79.1325C46.19 77.5901 48.4681 78.1528 49.1695 80.2447C49.2269 80.4185 49.3935 80.6645 49.5349 80.6837C50.9436 80.8781 51.7142 81.7134 52.0163 83.0834C53.3808 83.2351 54.3474 83.8789 54.701 85.2872C54.7364 85.4256 55.009 85.5626 55.1902 85.5951C56.26 85.7924 56.9968 86.3846 57.3298 87.4129C57.6613 88.4382 57.4521 89.3869 56.6785 90.1426C55.7163 91.0824 54.9088 92.2138 53.6033 92.75H52.4156Z" fill="url(#paint1_linear_136_2890)"/>
    <path d="M55.0856 62.4155C53.1111 63.8871 51.1838 65.2615 49.3257 66.7258C46.7323 68.769 46.8811 72.6699 49.6189 74.5157C51.6936 75.9137 53.8891 76.0021 56.0979 74.8236C56.9275 74.3816 57.7055 73.8454 58.5307 73.3372C59.767 74.6939 61.2302 75.6912 63.0367 75.8931C64.3039 76.0345 65.6094 75.9063 66.8899 75.8017C67.3187 75.7664 67.6311 75.7929 67.9759 76.0448C69.6763 77.2896 71.393 78.5137 73.1037 79.7482C74.7894 80.9636 75.3375 81.0357 77.2295 80.2815C77.5596 82.1317 75.7988 83.5813 73.0536 83.6785C72.8326 84.6552 72.3478 85.489 71.4799 86.0591C70.609 86.6292 69.666 86.8074 68.583 86.5216C68.3885 87.5823 67.8889 88.4293 67.0255 89.0348C66.1487 89.6491 65.1718 89.7802 64.1521 89.5798C62.8319 92.6174 60.2105 93.4822 58.1299 91.5494C58.8681 90.6906 59.3794 89.7227 59.4398 88.5546C59.54 86.6203 58.5469 84.9204 56.8244 84.0394C56.4987 83.873 56.2423 83.5607 55.98 83.2896C55.6293 82.9302 55.3685 82.4308 54.953 82.1951C53.9834 81.6471 53.3351 80.7824 52.5335 80.0767C51.5153 79.1796 50.5089 78.2766 49.5099 77.3559C47.7976 75.7767 45.1674 75.9137 43.4493 77.5076C42.7907 78.1189 42.2101 78.8128 41.5809 79.4831C40.0131 78.5992 38.5484 77.7742 37.0292 76.9184C39.1585 71.5297 41.2744 66.1778 43.4198 60.7479C44.2185 61.2237 44.9346 61.6818 45.6832 62.0781C45.9204 62.2033 46.2681 62.246 46.5275 62.1798C47.5265 61.9264 48.5049 61.5949 49.4995 61.3268C51.4903 60.7906 53.3189 61.1515 55.09 62.4169L55.0856 62.4155Z" fill="url(#paint2_linear_136_2890)"/>
    <path d="M74.7246 61.0558C76.7492 66.1837 78.7369 71.2174 80.7527 76.3203C79.0596 77.1423 77.4211 77.9731 75.7413 78.7141C75.476 78.8305 74.9677 78.6242 74.6759 78.418C72.5718 76.9419 70.4882 75.4393 68.415 73.9191C68.0083 73.6215 67.6664 73.5537 67.1655 73.6966C64.8638 74.3551 62.6241 74.3448 60.7056 72.6684C60.072 72.1145 59.5857 71.3912 58.9948 70.7018C57.8293 71.431 56.6137 72.2132 55.3774 72.9615C53.8449 73.8881 52.2889 73.9043 50.7815 72.9203C49.0958 71.8184 48.9691 69.4835 50.5678 68.2623C53.2025 66.2485 55.8754 64.2819 58.5572 62.33C59.8848 61.3636 61.4055 61.1088 63.0116 61.4049C65.3869 61.8409 67.7607 62.2785 70.1301 62.7499C70.6577 62.8544 71.1041 62.8014 71.5786 62.5613C72.5924 62.0486 73.6268 61.5787 74.7275 61.0572L74.7246 61.0558Z" fill="url(#paint3_linear_136_2890)"/>
    <path d="M79.5518 55.673C80.1824 57.4009 80.7998 59.0862 81.4113 60.7729C82.0479 62.5245 82.6771 64.279 83.3122 66.032C83.6599 66.9924 84.1123 67.3121 84.7547 67.0573C85.3721 66.8127 85.5048 66.2927 85.1762 65.3838C83.9974 62.1252 82.8171 58.8682 81.6383 55.6096C81.572 55.427 81.5086 55.2443 81.4231 55.0027C82.3618 54.6683 83.2562 54.3206 84.1698 54.0349C84.7135 53.8654 85.1334 54.1733 85.3957 54.8539C86.2091 56.962 87.0166 59.0715 87.8241 61.181C89.3992 65.2984 90.9744 69.4157 92.5481 73.5331C92.9401 74.5584 92.8001 74.9149 91.8187 75.3392C89.5834 76.3055 87.3466 77.269 85.1084 78.228C84.1683 78.6301 83.7321 78.4563 83.3608 77.5179C80.8337 71.1349 78.3096 64.7518 75.7884 58.3673C75.448 57.5041 75.6588 57.0636 76.5414 56.7454C77.5272 56.3904 78.5159 56.0412 79.5518 55.6715V55.673Z" fill="url(#paint4_linear_136_2890)"/>
    <path d="M35.3052 41.7299C34.4712 41.7299 33.6372 41.7372 32.8032 41.7269C32.0886 41.7181 31.6583 41.3336 31.6612 40.7355C31.6642 40.1404 32.0959 39.7588 32.8135 39.7544C34.5257 39.747 36.238 39.7456 37.9502 39.7544C38.6589 39.7573 39.0995 40.1536 39.0966 40.7443C39.0936 41.3351 38.653 41.7181 37.9413 41.7254C37.0631 41.7357 36.1849 41.7284 35.3067 41.7284L35.3052 41.7299Z" fill="url(#paint5_linear_136_2890)"/>
    <path d="M82.6137 41.7299C81.7576 41.7299 80.9015 41.7387 80.0454 41.7269C79.3411 41.7166 78.9064 41.313 78.9226 40.7149C78.9373 40.1448 79.3602 39.7603 80.0321 39.7559C81.7665 39.7456 83.5008 39.7456 85.2351 39.7559C85.9453 39.7603 86.3697 40.161 86.355 40.7664C86.3402 41.3424 85.9247 41.7166 85.2484 41.7269C84.3702 41.7402 83.4919 41.7299 82.6137 41.7299Z" fill="url(#paint6_linear_136_2890)"/>
    <path d="M41.1742 46.4188C41.0504 46.575 40.8839 46.9403 40.601 47.1156C39.2793 47.9361 37.931 48.7169 36.5783 49.4873C36.0479 49.7893 35.4791 49.6184 35.208 49.1426C34.9369 48.6668 35.0754 48.0996 35.6014 47.7829C36.9349 46.9801 38.2744 46.1846 39.6315 45.423C40.3579 45.0149 41.158 45.4554 41.1742 46.4188Z" fill="url(#paint7_linear_136_2890)"/>
    <path d="M35.9197 31.7347C36.2984 31.8938 36.5297 31.9645 36.7331 32.0824C37.9855 32.8086 39.2351 33.5408 40.4772 34.2832C41.1462 34.6839 41.3378 35.226 41.0283 35.7504C40.7204 36.2749 40.1398 36.3692 39.4738 35.9832C38.1845 35.2334 36.8996 34.4747 35.6161 33.7146C35.1682 33.4494 34.9251 33.0252 35.1476 32.5508C35.3008 32.2223 35.6648 31.9925 35.9182 31.7347H35.9197Z" fill="url(#paint8_linear_136_2890)"/>
    <path d="M82.935 33.0487C82.8156 33.1946 82.6432 33.5511 82.3603 33.7264C81.0769 34.5248 79.7654 35.2805 78.454 36.0333C77.8676 36.3692 77.3017 36.2454 77.0056 35.7666C76.6887 35.254 76.8538 34.6942 77.4653 34.3289C78.7634 33.5525 80.0631 32.7777 81.376 32.0293C82.1319 31.5992 82.9438 32.0396 82.935 33.0502V33.0487Z" fill="url(#paint9_linear_136_2890)"/>
    <path d="M82.935 48.4753C82.9438 49.3606 82.1997 49.8851 81.5572 49.5315C80.1161 48.739 78.703 47.8949 77.3003 47.036C76.8022 46.7311 76.7079 46.1595 77.0041 45.7117C77.3194 45.2374 77.7983 45.0989 78.2698 45.3611C79.7065 46.1625 81.1225 47.0022 82.5224 47.8654C82.7493 48.0054 82.8524 48.3456 82.9364 48.4738L82.935 48.4753Z" fill="url(#paint10_linear_136_2890)"/>
    <path d="M58.958 25.25C50.4588 25.2648 43.5304 32.1929 43.5186 40.6913C43.5083 49.2885 50.4559 56.2357 59.0626 56.2313C67.5751 56.2269 74.5153 49.2516 74.4947 40.7208C74.4741 32.1398 67.5412 25.2368 58.958 25.25ZM59.0553 54.4134C51.4593 54.4179 45.3266 48.2853 45.3369 40.6972C45.3472 33.196 51.4623 27.0811 58.9624 27.0693C66.5392 27.0561 72.6587 33.1489 72.6779 40.7237C72.6955 48.2528 66.5687 54.409 59.0553 54.4134Z" fill="url(#paint11_linear_136_2890)"/>
    <path d="M59.0803 28.8459C52.4805 28.8047 47.1581 34.0991 47.1139 40.7502C47.0712 47.1922 52.3979 52.5868 58.8534 52.6383C65.4856 52.6899 70.864 47.4102 70.8979 40.8121C70.9303 34.2302 65.6551 28.8872 59.0803 28.8459ZM51.6892 35.31C53.0522 33.7013 54.9294 32.6039 56.8789 31.7818C56.369 32.2915 55.7811 32.7291 55.3744 33.3242C54.9589 33.912 54.7497 34.7207 55.0856 35.3571C55.4393 36.0289 56.2615 36.2999 57.0115 36.4251C58.4099 36.6653 59.8318 36.6299 61.2478 36.7433C62.658 36.8568 64.1035 37.1322 65.2853 37.9071C66.4744 38.6805 67.3555 40.0417 67.2303 41.4514C65.9645 40.0417 64.0372 39.4362 62.1717 39.1372C60.3122 38.8366 58.4143 38.7821 56.5385 38.9265C55.2713 39.0223 53.9923 39.2079 52.7339 39.0517C52.2594 38.9928 51.785 38.8852 51.3886 38.6216C50.1052 37.7627 50.9156 36.2145 51.6892 35.31ZM67.1993 44.8234C67.0078 45.4348 66.5761 45.9445 66.1311 46.3997C64.7209 47.8522 62.9881 48.985 61.1034 49.6995C61.6987 49.1411 62.3692 48.6447 62.7714 47.9361C63.1737 47.2276 63.2164 46.2273 62.6035 45.6867C62.3633 45.4775 62.045 45.3626 61.74 45.2727C60.3122 44.8647 58.8048 44.8588 57.3224 44.7748C55.8415 44.6908 54.3179 44.5052 53.0153 43.7849C52.3316 43.4077 51.7319 42.8553 51.312 42.1968C50.8861 41.5177 50.7535 40.7871 50.7343 40.0004C51.6347 41.0979 53.0212 41.6857 54.3945 42.051C56.7404 42.6697 59.2011 42.7419 61.6133 42.543C63.0293 42.4296 64.4822 42.2248 65.8614 42.5681C66.215 42.6579 66.5687 42.7831 66.8398 43.035C67.3069 43.4726 67.3924 44.2106 67.1993 44.8234Z" fill="url(#paint12_linear_136_2890)"/>
  </g>
  <defs>
    <filter id="filter0_d_136_2890" x="-6" y="-6" width="130" height="130" filterUnits="userSpaceOnUse" color-interpolation-filters="sRGB">
      <feFlood flood-opacity="0" result="BackgroundImageFix"/>
      <feColorMatrix in="SourceAlpha" type="matrix" values="0 0 0 0 0 0 0 0 0 0 0 0 0 0 0 0 0 0 127 0" result="hardAlpha"/>
      <feOffset/>
      <feGaussianBlur stdDeviation="12.5"/>
      <feColorMatrix type="matrix" values="0 0 0 0 0.388235 0 0 0 0 0.87451 0 0 0 0 0.85098 0 0 0 0.35 0"/>
      <feBlend mode="normal" in2="BackgroundImageFix" result="effect1_dropShadow_136_2890"/>
      <feBlend mode="normal" in="SourceGraphic" in2="effect1_dropShadow_136_2890" result="shape"/>
    </filter>
    <linearGradient id="paint0_linear_136_2890" x1="25.25" y1="25.25" x2="92.75" y2="92.7513" gradientUnits="userSpaceOnUse">
      <stop stop-color="#24C3BC"/>
      <stop offset="1" stop-color="#ADFFFB"/>
    </linearGradient>
    <linearGradient id="paint1_linear_136_2890" x1="25.25" y1="25.25" x2="92.75" y2="92.7513" gradientUnits="userSpaceOnUse">
      <stop stop-color="#24C3BC"/>
      <stop offset="1" stop-color="#ADFFFB"/>
    </linearGradient>
    <linearGradient id="paint2_linear_136_2890" x1="25.25" y1="25.25" x2="92.75" y2="92.7513" gradientUnits="userSpaceOnUse">
      <stop stop-color="#24C3BC"/>
      <stop offset="1" stop-color="#ADFFFB"/>
    </linearGradient>
    <linearGradient id="paint3_linear_136_2890" x1="25.25" y1="25.25" x2="92.75" y2="92.7513" gradientUnits="userSpaceOnUse">
      <stop stop-color="#24C3BC"/>
      <stop offset="1" stop-color="#ADFFFB"/>
    </linearGradient>
    <linearGradient id="paint4_linear_136_2890" x1="25.25" y1="25.25" x2="92.75" y2="92.7513" gradientUnits="userSpaceOnUse">
      <stop stop-color="#24C3BC"/>
      <stop offset="1" stop-color="#ADFFFB"/>
    </linearGradient>
    <linearGradient id="paint5_linear_136_2890" x1="25.25" y1="25.25" x2="92.75" y2="92.7513" gradientUnits="userSpaceOnUse">
      <stop stop-color="#24C3BC"/>
      <stop offset="1" stop-color="#ADFFFB"/>
    </linearGradient>
    <linearGradient id="paint6_linear_136_2890" x1="25.25" y1="25.25" x2="92.75" y2="92.7513" gradientUnits="userSpaceOnUse">
      <stop stop-color="#24C3BC"/>
      <stop offset="1" stop-color="#ADFFFB"/>
    </linearGradient>
    <linearGradient id="paint7_linear_136_2890" x1="25.25" y1="25.25" x2="92.75" y2="92.7513" gradientUnits="userSpaceOnUse">
      <stop stop-color="#24C3BC"/>
      <stop offset="1" stop-color="#ADFFFB"/>
    </linearGradient>
    <linearGradient id="paint8_linear_136_2890" x1="25.25" y1="25.25" x2="92.75" y2="92.7513" gradientUnits="userSpaceOnUse">
      <stop stop-color="#24C3BC"/>
      <stop offset="1" stop-color="#ADFFFB"/>
    </linearGradient>
    <linearGradient id="paint9_linear_136_2890" x1="25.25" y1="25.25" x2="92.75" y2="92.7513" gradientUnits="userSpaceOnUse">
      <stop stop-color="#24C3BC"/>
      <stop offset="1" stop-color="#ADFFFB"/>
    </linearGradient>
    <linearGradient id="paint10_linear_136_2890" x1="25.25" y1="25.25" x2="92.75" y2="92.7513" gradientUnits="userSpaceOnUse">
      <stop stop-color="#24C3BC"/>
      <stop offset="1" stop-color="#ADFFFB"/>
    </linearGradient>
    <linearGradient id="paint11_linear_136_2890" x1="25.25" y1="25.25" x2="92.75" y2="92.7513" gradientUnits="userSpaceOnUse">
      <stop stop-color="#24C3BC"/>
      <stop offset="1" stop-color="#ADFFFB"/>
    </linearGradient>
    <linearGradient id="paint12_linear_136_2890" x1="25.25" y1="25.25" x2="92.75" y2="92.7513" gradientUnits="userSpaceOnUse">
      <stop stop-color="#24C3BC"/>
      <stop offset="1" stop-color="#ADFFFB"/>
    </linearGradient>
  </defs>
</svg>