<svg xmlns="http://www.w3.org/2000/svg" width="118" height="118" viewBox="0 0 118 118" fill="none">
  <g filter="url(#filter0_d_136_2884)">
    <path d="M85.7996 30.2706C78.7911 24.0966 68.4613 23.5478 60.6713 29.0076C53.3019 34.1702 49.6832 44.4883 54.2031 54.2277C43.296 49.3712 32.7849 54.5337 28.2598 62.0023C23.446 69.9458 24.6147 80.153 31.2061 86.816C37.7711 93.4526 47.9636 94.6434 56.1972 89.7763C63.2515 85.6076 68.9647 75.0256 63.8218 63.763C67.0691 65.2282 70.3956 65.8808 73.8893 65.6345C77.3707 65.3883 80.5687 64.3206 83.4887 62.4227C86.4333 60.5072 88.7372 57.9971 90.3635 54.8838C94.7231 46.5498 92.8504 36.4815 85.7996 30.2706ZM45.5612 88.2654C36.8577 88.2548 29.8174 81.2541 29.7998 72.5912C29.7822 63.902 36.8366 56.8327 45.5471 56.8116C54.2171 56.7922 61.2715 63.821 61.2908 72.5033C61.3102 81.2207 54.2699 88.2759 45.5612 88.2654ZM72.4021 61.209C63.6687 61.1685 56.602 54.0869 56.6566 45.4293C56.7111 36.7013 63.8024 29.6848 72.4918 29.7569C81.2569 29.8273 88.2444 36.8561 88.2004 45.5542C88.1564 54.2118 81.0545 61.2494 72.4021 61.209Z" fill="url(#paint0_linear_136_2884)"/>
    <path d="M89.5046 73.4795C89.5222 77.9191 88.5119 81.9014 85.2382 84.9867C82.0489 87.991 78.2015 89.4157 73.745 89.4087C73.745 90.0789 73.7362 90.7015 73.7468 91.3242C73.7573 91.9223 73.5549 92.3831 72.9565 92.5854C72.3845 92.7789 71.9691 92.5256 71.6153 92.0858C70.195 90.3163 68.7693 88.5486 67.3401 86.7861C66.8948 86.2355 66.8632 85.6973 67.3102 85.1344C68.7359 83.3385 70.1615 81.5426 71.5784 79.7397C71.9356 79.2859 72.3792 79.0801 72.9318 79.2489C73.5074 79.4248 73.701 79.8945 73.7063 80.452C73.7151 81.1715 73.708 81.8909 73.708 82.598C79.7591 83.284 83.4992 79.46 82.6931 73.5094C81.9785 73.5094 81.2552 73.5024 80.5318 73.5112C79.9862 73.5182 79.5637 73.3247 79.3684 72.7935C79.1642 72.2377 79.3631 71.7927 79.8102 71.4321C81.5984 69.9968 83.3796 68.5509 85.1731 67.1226C85.8137 66.6125 86.208 66.6284 86.868 67.149C88.6333 68.5386 90.3864 69.9422 92.1552 71.3283C92.6287 71.6994 92.8804 72.1462 92.6815 72.7284C92.4808 73.3212 91.9915 73.5006 91.3949 73.483C90.7894 73.4654 90.1839 73.4795 89.501 73.4795H89.5046Z" fill="url(#paint1_linear_136_2884)"/>
    <path d="M28.4939 44.541C28.4816 40.1102 29.4901 36.1051 32.7884 33.0128C35.9829 30.019 39.8322 28.5996 44.257 28.6119C44.257 27.9171 44.2622 27.2909 44.2552 26.6629C44.2482 26.0913 44.4576 25.6498 45.012 25.4475C45.5735 25.2434 46.0082 25.4686 46.3638 25.9119C47.8 27.699 49.2397 29.4826 50.6812 31.2661C51.1318 31.8237 51.1106 32.3602 50.6671 32.9178C49.2538 34.6926 47.844 36.4709 46.443 38.258C46.0698 38.7347 45.6122 38.9581 45.0331 38.7628C44.4664 38.5711 44.2939 38.0892 44.2904 37.5333C44.2869 36.8333 44.2904 36.135 44.2904 35.4454C38.322 34.6733 34.5502 38.4902 35.2895 44.5111C35.9952 44.5111 36.7133 44.5182 37.4315 44.5094C38.0017 44.5023 38.4452 44.6888 38.6406 45.2605C38.8342 45.8286 38.6054 46.256 38.1636 46.6096C36.393 48.0291 34.6312 49.4591 32.8571 50.8751C32.2076 51.394 31.7993 51.3975 31.1586 50.8944C29.3739 49.4925 27.6033 48.073 25.8186 46.6729C25.3398 46.2982 25.1198 45.8356 25.3293 45.2622C25.5299 44.7099 25.9963 44.5252 26.5666 44.5393C27.1914 44.5551 27.818 44.5428 28.4939 44.5428V44.541Z" fill="url(#paint2_linear_136_2884)"/>
    <path d="M72.4214 32.0031C64.9676 32.0102 58.9623 38.0223 58.9587 45.4821C58.9535 52.919 64.9905 58.9558 72.4337 58.9628C79.8682 58.9681 85.9299 52.9295 85.9492 45.5032C85.9668 38.0452 79.907 31.9961 72.4214 32.0031ZM75.139 52.0624C74.6673 52.182 74.1709 52.1996 73.5954 52.277C73.5954 52.9718 73.6042 53.6243 73.5919 54.2751C73.5778 55.086 73.1149 55.5996 72.4408 55.5785C71.7878 55.5574 71.3619 55.0649 71.3513 54.2892C71.3407 53.6384 71.3478 52.9876 71.3478 52.2348C70.6526 52.2348 70.0084 52.24 69.3642 52.233C68.4595 52.2224 67.9738 51.8214 67.9755 51.1037C67.9773 50.3896 68.4595 49.9973 69.3677 49.9886C70.7476 49.9762 72.1275 49.971 73.5091 49.9622C73.6957 49.9604 73.884 49.9657 74.0706 49.9534C75.1073 49.8848 75.7972 49.2287 75.8113 48.3017C75.8271 47.3519 75.1038 46.6254 74.0495 46.6008C72.9987 46.5779 71.9445 46.6307 70.8919 46.6131C69.2058 46.5832 67.9051 45.8585 67.1694 44.3159C65.9778 41.8217 67.7397 38.9264 70.5118 38.7664C70.7406 38.7523 70.9676 38.7365 71.2633 38.7189C71.2633 38.01 71.2527 37.361 71.2651 36.7119C71.2809 35.8641 71.6892 35.3892 72.3827 35.3839C73.0832 35.3768 73.4845 35.8412 73.5074 36.6925C73.5232 37.3011 73.5285 37.908 73.5426 38.5166C73.5443 38.557 73.5795 38.5993 73.6394 38.7277C74.2431 38.7277 74.889 38.7189 75.535 38.7294C76.3992 38.7435 76.8673 39.1322 76.8814 39.8217C76.8937 40.5394 76.4132 40.958 75.5138 40.9703C73.9932 40.9897 72.4725 40.9862 70.9518 41.0038C69.7778 41.0161 69.0509 41.6792 69.0668 42.7029C69.0791 43.6897 69.8042 44.3493 70.9359 44.3669C72.1046 44.3827 73.2768 44.3124 74.442 44.3792C76.4097 44.4953 77.8917 46.0274 78.0607 48.0238C78.2138 49.8285 76.9465 51.5998 75.139 52.0624Z" fill="url(#paint3_linear_136_2884)"/>
    <path d="M45.5629 59.0595C38.1372 59.0525 32.0703 65.0998 32.0527 72.5244C32.0334 79.9789 38.1038 86.0315 45.5858 86.0192C53.0467 86.0069 59.0397 80.0018 59.0432 72.535C59.0467 65.0998 53.0115 59.0648 45.5629 59.0595ZM37.1217 66.2871C38.6917 64.4349 40.853 63.172 43.0988 62.2257C42.5127 62.8132 41.8351 63.3162 41.3652 64.0005C40.8882 64.6777 40.6471 65.6099 41.0325 66.3416C41.4409 67.1156 42.3878 67.4252 43.252 67.5712C44.8607 67.8473 46.4993 67.8051 48.1291 67.937C49.7536 68.0672 51.4186 68.3856 52.7792 69.2774C54.1485 70.1674 55.164 71.7346 55.018 73.3582C53.5606 71.7346 51.343 71.0381 49.1939 70.6916C47.0519 70.3468 44.8677 70.2852 42.7046 70.4506C41.2473 70.5614 39.7759 70.7742 38.3238 70.5948C37.7782 70.5262 37.2326 70.4013 36.7767 70.0988C35.2983 69.1103 36.2311 67.3284 37.1217 66.2871ZM54.9845 77.2384C54.7628 77.9438 54.2647 78.5295 53.7542 79.0554C52.1297 80.7265 50.1338 82.0316 47.9636 82.853C48.6483 82.211 49.421 81.6376 49.8839 80.8232C50.3485 80.007 50.396 78.8549 49.692 78.2322C49.4157 77.9913 49.0478 77.8593 48.6958 77.7573C47.0519 77.2877 45.3165 77.2806 43.611 77.1839C41.9038 77.0872 40.149 76.8726 38.6494 76.0441C37.8609 75.6096 37.171 74.9729 36.6869 74.2148C36.1959 73.4338 36.0445 72.5912 36.0234 71.6871C37.0601 72.9501 38.6565 73.6273 40.2387 74.0477C42.9404 74.76 45.7741 74.8427 48.5515 74.6141C50.1813 74.4839 51.8534 74.2482 53.4427 74.6422C53.851 74.746 54.2594 74.8902 54.5691 75.1804C55.1077 75.6853 55.2045 76.5348 54.9845 77.2384Z" fill="url(#paint4_linear_136_2884)"/>
  </g>
  <defs>
    <filter id="filter0_d_136_2884" x="-6" y="-6" width="130" height="130" filterUnits="userSpaceOnUse" color-interpolation-filters="sRGB">
      <feFlood flood-opacity="0" result="BackgroundImageFix"/>
      <feColorMatrix in="SourceAlpha" type="matrix" values="0 0 0 0 0 0 0 0 0 0 0 0 0 0 0 0 0 0 127 0" result="hardAlpha"/>
      <feOffset/>
      <feGaussianBlur stdDeviation="12.5"/>
      <feColorMatrix type="matrix" values="0 0 0 0 0.388235 0 0 0 0 0.87451 0 0 0 0 0.85098 0 0 0 0.35 0"/>
      <feBlend mode="normal" in2="BackgroundImageFix" result="effect1_dropShadow_136_2884"/>
      <feBlend mode="normal" in="SourceGraphic" in2="effect1_dropShadow_136_2884" result="shape"/>
    </filter>
    <linearGradient id="paint0_linear_136_2884" x1="25.25" y1="25.25" x2="92.75" y2="92.75" gradientUnits="userSpaceOnUse">
      <stop stop-color="#24C3BC"/>
      <stop offset="1" stop-color="#ADFFFB"/>
    </linearGradient>
    <linearGradient id="paint1_linear_136_2884" x1="25.25" y1="25.25" x2="92.75" y2="92.75" gradientUnits="userSpaceOnUse">
      <stop stop-color="#24C3BC"/>
      <stop offset="1" stop-color="#ADFFFB"/>
    </linearGradient>
    <linearGradient id="paint2_linear_136_2884" x1="25.25" y1="25.25" x2="92.75" y2="92.75" gradientUnits="userSpaceOnUse">
      <stop stop-color="#24C3BC"/>
      <stop offset="1" stop-color="#ADFFFB"/>
    </linearGradient>
    <linearGradient id="paint3_linear_136_2884" x1="25.25" y1="25.25" x2="92.75" y2="92.75" gradientUnits="userSpaceOnUse">
      <stop stop-color="#24C3BC"/>
      <stop offset="1" stop-color="#ADFFFB"/>
    </linearGradient>
    <linearGradient id="paint4_linear_136_2884" x1="25.25" y1="25.25" x2="92.75" y2="92.75" gradientUnits="userSpaceOnUse">
      <stop stop-color="#24C3BC"/>
      <stop offset="1" stop-color="#ADFFFB"/>
    </linearGradient>
  </defs>
</svg>