<svg xmlns="http://www.w3.org/2000/svg" width="122" height="118" viewBox="0 0 122 118" fill="none">
  <g filter="url(#filter0_d_136_2902)">
    <path d="M43.6639 86.3835V84.9707C43.6639 80.2859 43.6941 75.6012 43.6423 70.9179C43.6294 69.7739 43.3431 68.6327 43.1561 67.2943C44.0164 66.901 45.1112 66.3719 46.2305 65.9C47.1052 65.5325 48.0115 65.2407 48.9006 64.9076C51.1392 64.071 53.346 64.2026 55.5774 65.0048C58.8431 66.1788 61.8801 67.8048 64.874 69.5222C67.1945 70.8536 69.4992 72.2121 71.7982 73.5806C72.8671 74.2184 73.2714 75.3181 72.8988 76.4006C72.5262 77.4817 71.522 78.1752 70.407 78.0251C69.9524 77.9636 69.4949 77.7591 69.0892 77.5317C66.8018 76.2418 64.5287 74.9291 62.2556 73.6163C61.6485 73.266 61.0731 73.1802 60.5652 73.7565C59.9854 74.4143 60.1609 75.1636 61.0285 75.6656C63.4094 77.0427 65.7933 78.414 68.1843 79.7726C69.482 80.509 70.8458 80.5877 72.2384 80.0586C74.1403 79.3364 75.379 77.6018 75.3948 75.574C75.3977 75.1207 75.5344 74.9277 75.9617 74.7861C80.7337 73.2074 85.4927 71.5929 90.2691 70.0284C90.9942 69.791 91.7854 69.6495 92.5465 69.6423C94.4512 69.6237 95.923 70.742 96.4323 72.468C96.9646 74.2727 96.2956 76.1847 94.6814 77.1585C92.6055 78.4112 90.4949 79.6081 88.3787 80.7936C81.6832 84.5445 74.992 88.3069 67.9628 91.4229C67.1183 91.7975 66.2378 92.0893 65.3847 92.4468C63.4612 93.2533 61.5392 93.1646 59.7092 92.268C58.2332 91.5444 56.829 90.6678 55.4379 89.7898C54.192 89.0033 52.9821 88.1524 51.7981 87.2744C50.04 85.9717 48.1223 85.5612 45.9859 86.0332C45.2551 86.1947 44.5041 86.2605 43.6654 86.3849L43.6639 86.3835Z" fill="url(#paint0_linear_136_2902)"/>
    <path d="M72.5362 28.9231C63.6444 28.9497 56.4515 36.1814 56.5098 45.0382C56.5649 53.9248 63.764 60.9967 72.7142 60.9607C81.5572 60.9247 88.7611 53.6977 88.7217 44.9082C88.6824 36.0546 81.4328 28.8965 72.5362 28.9231ZM62.3406 38.6269C64.164 36.4867 66.6771 35.0259 69.2862 33.9316C68.6044 34.611 67.8155 35.1919 67.2723 35.9841C66.7164 36.7685 66.4377 37.8441 66.8865 38.6911C67.3605 39.5866 68.4595 39.9452 69.4641 40.1111C71.3364 40.4305 73.2385 40.3836 75.1343 40.5354C77.0223 40.6873 78.9559 41.0536 80.5384 42.0838C82.1288 43.114 83.3098 44.927 83.1397 46.8027C81.4454 44.9255 78.8678 44.1192 76.3688 43.7215C73.8809 43.3207 71.3427 43.2487 68.8296 43.4412C67.1337 43.5696 65.4221 43.817 63.7373 43.6088C63.1027 43.5289 62.4681 43.3864 61.9375 43.0342C60.2196 41.8913 61.3029 39.8309 62.339 38.6269H62.3406ZM83.0972 51.2898C82.8421 52.1039 82.2642 52.7834 81.669 53.3893C79.781 55.3213 77.4616 56.8306 74.9391 57.7809C75.7343 57.0388 76.6334 56.3765 77.1703 55.4325C77.7088 54.49 77.7671 53.1576 76.9467 52.439C76.6255 52.1603 76.2004 52.0084 75.791 51.8894C73.8794 51.3462 71.8623 51.3368 69.8798 51.2256C67.8974 51.1144 65.8567 50.8655 64.1136 49.9073C63.1987 49.4048 62.3957 48.6705 61.8335 47.7922C61.262 46.8903 61.0872 45.915 61.0604 44.8691C62.2666 46.3314 64.1215 47.1127 65.959 47.5996C69.0988 48.4215 72.3914 48.517 75.6193 48.2556C77.5152 48.1037 79.4582 47.8313 81.3069 48.2869C81.7792 48.4074 82.2548 48.575 82.6154 48.91C83.2421 49.494 83.3554 50.4741 83.0972 51.2898Z" fill="url(#paint1_linear_136_2902)"/>
    <path d="M72.6502 64.8839C67.296 64.8839 62.2737 62.8452 58.5002 59.1382C54.7065 55.4109 52.5983 50.4106 52.5654 45.0618C52.531 39.7238 54.5938 34.694 58.375 30.8982C62.1469 27.1103 67.1708 25.0171 72.5187 25C72.5391 25 72.561 25 72.5813 25C83.6136 25 92.6176 33.9127 92.6661 44.8968C92.6896 50.1912 90.6221 55.1915 86.8487 58.9779C83.0737 62.7643 78.0623 64.8621 72.7378 64.8839C72.7097 64.8839 72.6799 64.8839 72.6518 64.8839H72.6502ZM72.5798 26.7959C72.561 26.7959 72.5422 26.7959 72.5234 26.7959C67.6591 26.8115 63.0891 28.7164 59.6568 32.1619C56.2168 35.6153 54.3387 40.1922 54.37 45.0509C54.4326 55.0125 62.6274 63.0895 72.6518 63.0895C72.6768 63.0895 72.7018 63.0895 72.7284 63.0895C77.5708 63.0693 82.1299 61.1597 85.5637 57.7142C88.9991 54.2686 90.8788 49.7197 90.8584 44.9061C90.8146 34.9087 82.6182 26.7975 72.5798 26.7975V26.7959Z" fill="url(#paint2_linear_136_2902)"/>
    <path d="M41.2542 70.3988C41.2441 68.208 39.7163 66.6965 37.5065 66.6865C34.8004 66.6722 32.0943 66.6722 29.3882 66.6851C27.141 66.6965 25.6218 68.2137 25.6175 70.4517C25.6103 75.9072 25.6103 81.3613 25.6175 86.8168C25.6203 89.0991 27.1309 90.5963 29.4371 90.6063C29.7694 90.6078 30.1017 90.6092 30.4355 90.6106V77.5675C30.4355 76.8882 30.9894 76.3362 31.6742 76.3362C32.359 76.3362 32.9114 76.8882 32.9114 77.5675V90.6149C34.4105 90.6149 35.9081 90.6121 37.4058 90.6063C39.745 90.5978 41.2499 89.0934 41.2556 86.7625C41.2628 84.0726 41.2585 81.3827 41.2585 78.6915C41.2571 75.9272 41.2686 73.163 41.2542 70.3988Z" fill="url(#paint3_linear_136_2902)"/>
  </g>
  <defs>
    <filter id="filter0_d_136_2902" x="-4" y="-6" width="130" height="130" filterUnits="userSpaceOnUse" color-interpolation-filters="sRGB">
      <feFlood flood-opacity="0" result="BackgroundImageFix"/>
      <feColorMatrix in="SourceAlpha" type="matrix" values="0 0 0 0 0 0 0 0 0 0 0 0 0 0 0 0 0 0 127 0" result="hardAlpha"/>
      <feOffset/>
      <feGaussianBlur stdDeviation="12.5"/>
      <feColorMatrix type="matrix" values="0 0 0 0 0.388235 0 0 0 0 0.87451 0 0 0 0 0.85098 0 0 0 0.35 0"/>
      <feBlend mode="normal" in2="BackgroundImageFix" result="effect1_dropShadow_136_2902"/>
      <feBlend mode="normal" in="SourceGraphic" in2="effect1_dropShadow_136_2902" result="shape"/>
    </filter>
    <linearGradient id="paint0_linear_136_2902" x1="25.6121" y1="25" x2="93.5487" y2="95.9339" gradientUnits="userSpaceOnUse">
      <stop stop-color="#24C3BC"/>
      <stop offset="1" stop-color="#ADFFFB"/>
    </linearGradient>
    <linearGradient id="paint1_linear_136_2902" x1="25.6121" y1="25" x2="93.5487" y2="95.9339" gradientUnits="userSpaceOnUse">
      <stop stop-color="#24C3BC"/>
      <stop offset="1" stop-color="#ADFFFB"/>
    </linearGradient>
    <linearGradient id="paint2_linear_136_2902" x1="25.6121" y1="25" x2="93.5487" y2="95.9339" gradientUnits="userSpaceOnUse">
      <stop stop-color="#24C3BC"/>
      <stop offset="1" stop-color="#ADFFFB"/>
    </linearGradient>
    <linearGradient id="paint3_linear_136_2902" x1="25.6121" y1="25" x2="93.5487" y2="95.9339" gradientUnits="userSpaceOnUse">
      <stop stop-color="#24C3BC"/>
      <stop offset="1" stop-color="#ADFFFB"/>
    </linearGradient>
  </defs>
</svg>