<svg xmlns="http://www.w3.org/2000/svg" width="114" height="114" viewBox="0 0 114 114" fill="none">
  <g filter="url(#filter0_d_136_2896)">
    <path d="M87.5188 65.0396C83.9087 52.3221 68.174 47.5993 58.2282 56.3153C52.7341 61.1303 50.7166 67.3055 52.4491 74.388C54.1488 81.3404 58.7404 85.7404 65.6311 87.6885C66.611 87.9651 67.6404 88.0672 68.6467 88.25H71.4827C72.5647 88.0458 73.6648 87.9042 74.7304 87.6292C81.9423 85.7651 87.3969 79.3973 88.138 72.0184C88.1561 71.8389 88.2121 71.661 88.25 71.4832V68.6476C88.0096 67.4438 87.8531 66.217 87.5188 65.0396ZM59.3679 62.1299C61.3557 59.7833 64.0978 58.1794 66.9437 56.9806C66.1993 57.7249 65.3396 58.3638 64.7451 59.2317C64.1407 60.0896 63.8343 61.2719 64.3251 62.2007C64.8423 63.1805 66.0412 63.5757 67.1364 63.7585C69.177 64.1092 71.2521 64.0565 73.3206 64.2228C75.3793 64.3892 77.489 64.791 79.215 65.9223C80.9492 67.0519 82.2354 69.0395 82.0526 71.0979C80.2048 69.0395 77.3935 68.1552 74.6678 67.7172C71.9537 67.2791 69.1852 67.2001 66.4447 67.4109C64.5952 67.5508 62.7309 67.8209 60.8913 67.5937C60.1996 67.5064 59.5079 67.35 58.9298 66.9646C57.0556 65.7115 58.2364 63.4522 59.3679 62.1299ZM82.0082 76.0199C81.7282 76.9124 81.0974 77.6567 80.4502 78.322C78.3915 80.4413 75.8602 82.0962 73.1098 83.1386C73.9777 82.3235 74.9577 81.5973 75.544 80.5632C76.1303 79.5307 76.1929 78.0684 75.3002 77.2796C74.9494 76.975 74.485 76.807 74.0387 76.6769C71.9537 76.0808 69.755 76.0709 67.591 75.9491C65.4286 75.8272 63.2036 75.5555 61.303 74.5033C60.305 73.9516 59.4288 73.1464 58.8162 72.1847C58.1936 71.1934 58.0026 70.1263 57.9746 68.9785C59.2888 70.5808 61.3112 71.4387 63.3172 71.9739C66.7412 72.8747 70.3331 72.98 73.8542 72.6919C75.9211 72.5256 78.0407 72.2275 80.0549 72.7265C80.572 72.8582 81.0875 73.041 81.4828 73.4098C82.1663 74.0488 82.2898 75.1257 82.0082 76.0199Z" fill="url(#paint0_linear_136_2896)"/>
    <path d="M52.5875 25.125C45.3772 25.125 38.167 25.125 30.9584 25.1266C27.4883 25.1283 25.1266 27.4963 25.125 30.9758C25.125 38.1653 25.125 45.3548 25.125 52.5444V53.1915H53.2084V25.125H52.5875ZM43.34 41.0289C42.6022 41.0355 41.8643 41.0289 41.0294 41.0289C41.0294 41.7798 41.0294 42.5093 41.0294 43.2388C41.0244 44.4953 40.2882 45.3351 39.1914 45.3433C38.0929 45.3499 37.337 44.5068 37.3304 43.2635C37.3304 42.5472 37.3304 41.8309 37.3304 41.0289C36.5662 41.0289 35.835 41.0322 35.1037 41.0289C33.8586 41.024 33.0154 40.2747 33.0171 39.1764C33.0171 38.0797 33.8636 37.3354 35.112 37.3321C35.8267 37.3288 36.5415 37.3304 37.3304 37.3304C37.3304 36.484 37.3238 35.7249 37.3304 34.9674C37.3452 33.8312 38.139 33.0062 39.1963 33.0177C40.229 33.0276 41.0047 33.8394 41.0261 34.941C41.0392 35.7018 41.0392 36.461 41.0475 37.2201C41.0475 37.2366 41.0705 37.2514 41.1364 37.3304C41.8364 37.3304 42.5906 37.3255 43.3449 37.3321C44.4994 37.3419 45.3245 38.0961 45.3394 39.1517C45.3575 40.2319 44.5225 41.0174 43.3383 41.0289H43.34Z" fill="url(#paint1_linear_136_2896)"/>
    <path d="M85.0434 30.956C85.0401 27.4814 82.6735 25.1266 79.187 25.125C71.9965 25.125 64.8044 25.125 57.6122 25.125H56.9584V52.5296C57.1478 52.4028 57.2499 52.3385 57.3487 52.2677C65.3429 46.5882 75.9178 46.8369 83.6123 52.9083C84.075 53.2739 84.5131 53.2739 85.0434 53.1784V52.5921C85.0434 45.3795 85.0467 38.1669 85.0434 30.956ZM75.0532 41.0289C73.6994 41.0322 72.3456 41.0289 70.9919 41.0289C69.6381 41.0289 68.2432 41.0339 66.8696 41.0289C65.6723 41.024 64.8373 40.2714 64.8258 39.1978C64.8143 38.1027 65.6591 37.3337 66.8943 37.3321C69.6216 37.3288 72.3489 37.3288 75.0762 37.3321C76.3164 37.3337 77.158 38.0945 77.1514 39.1912C77.1431 40.2896 76.3049 41.0256 75.0532 41.0289Z" fill="url(#paint2_linear_136_2896)"/>
    <path d="M52.8395 83.519C46.8875 75.959 46.6157 65.3706 52.1527 57.5043C52.2647 57.3445 52.3701 57.1799 52.515 56.9609H25.125V57.608C25.125 64.7992 25.125 71.9904 25.125 79.1816C25.125 82.694 27.485 85.0439 31.0095 85.0439C38.1802 85.0471 45.3509 85.0439 52.5216 85.0439H53.182C53.3039 84.4379 53.21 83.9867 52.8395 83.5174V83.519ZM43.4701 72.6655C44.2853 73.5004 44.3199 74.607 43.5804 75.3628C42.8262 76.1368 41.6898 76.1055 40.84 75.2624C40.3031 74.7289 39.7991 74.164 39.1601 73.4872C38.526 74.1723 38.0023 74.8013 37.4111 75.3612C36.3159 76.397 34.6558 75.9178 34.305 74.4868C34.1337 73.7853 34.3659 73.1925 34.8616 72.6935C35.41 72.1419 35.9667 71.5985 36.6354 70.9348C35.9964 70.3404 35.3689 69.8134 34.8089 69.2223C33.7747 68.1321 34.2506 66.4657 35.6801 66.1149C36.3817 65.9437 36.9812 66.1709 37.4736 66.6715C38.0204 67.2248 38.5458 67.7979 39.1864 68.4747C39.8222 67.7995 40.3541 67.1787 40.9454 66.6188C42.0389 65.583 43.699 66.0573 44.0531 67.4883C44.2277 68.1914 43.9938 68.7875 43.4997 69.2848C42.953 69.8381 42.3914 70.3766 41.7458 71.0073C42.3765 71.6116 42.9381 72.1238 43.4701 72.6655Z" fill="url(#paint3_linear_136_2896)"/>
  </g>
  <defs>
    <filter id="filter0_d_136_2896" x="-8" y="-8" width="130" height="130" filterUnits="userSpaceOnUse" color-interpolation-filters="sRGB">
      <feFlood flood-opacity="0" result="BackgroundImageFix"/>
      <feColorMatrix in="SourceAlpha" type="matrix" values="0 0 0 0 0 0 0 0 0 0 0 0 0 0 0 0 0 0 127 0" result="hardAlpha"/>
      <feOffset/>
      <feGaussianBlur stdDeviation="12.5"/>
      <feColorMatrix type="matrix" values="0 0 0 0 0.388235 0 0 0 0 0.87451 0 0 0 0 0.85098 0 0 0 0.35 0"/>
      <feBlend mode="normal" in2="BackgroundImageFix" result="effect1_dropShadow_136_2896"/>
      <feBlend mode="normal" in="SourceGraphic" in2="effect1_dropShadow_136_2896" result="shape"/>
    </filter>
    <linearGradient id="paint0_linear_136_2896" x1="25.125" y1="25.125" x2="88.25" y2="88.25" gradientUnits="userSpaceOnUse">
      <stop stop-color="#24C3BC"/>
      <stop offset="1" stop-color="#ADFFFB"/>
    </linearGradient>
    <linearGradient id="paint1_linear_136_2896" x1="25.125" y1="25.125" x2="88.25" y2="88.25" gradientUnits="userSpaceOnUse">
      <stop stop-color="#24C3BC"/>
      <stop offset="1" stop-color="#ADFFFB"/>
    </linearGradient>
    <linearGradient id="paint2_linear_136_2896" x1="25.125" y1="25.125" x2="88.25" y2="88.25" gradientUnits="userSpaceOnUse">
      <stop stop-color="#24C3BC"/>
      <stop offset="1" stop-color="#ADFFFB"/>
    </linearGradient>
    <linearGradient id="paint3_linear_136_2896" x1="25.125" y1="25.125" x2="88.25" y2="88.25" gradientUnits="userSpaceOnUse">
      <stop stop-color="#24C3BC"/>
      <stop offset="1" stop-color="#ADFFFB"/>
    </linearGradient>
  </defs>
</svg>