<svg xmlns="http://www.w3.org/2000/svg" width="57" height="57" viewBox="0 0 57 57" fill="none">
  <g clip-path="url(#clip0_2610_21145)" filter="url(#filter0_d_2610_21145)">
    <path d="M10 40.4222C10.0674 39.8625 10.1339 39.3027 10.2033 38.7438C10.633 35.3032 12.0417 32.3116 14.3957 29.7776C15.5423 28.5434 16.7564 27.3717 17.9271 26.1597C18.9532 25.0969 19.8715 23.9533 20.3725 22.5379C20.5517 22.0311 20.6625 21.5002 20.8235 20.9125C20.4506 20.9125 20.1461 20.9154 19.8406 20.9125C19.145 20.9058 18.6642 20.45 18.6738 19.8103C18.6834 19.1879 19.1604 18.7475 19.8426 18.7466C22.6725 18.7437 25.5015 18.7437 28.3314 18.7466C29.0357 18.7466 29.5146 19.1946 29.5117 19.8344C29.5088 20.4741 29.0299 20.9077 28.3208 20.9135C28.0327 20.9154 27.7455 20.9135 27.4237 20.9135C27.5162 21.8076 27.7841 22.6169 28.1801 23.3877C28.8661 24.7241 29.901 25.783 30.9262 26.8553C32.2568 28.2456 33.5865 29.6388 34.8584 31.0822C35.5965 31.9194 36.139 32.907 36.6304 33.9688C36.4791 33.9784 36.3673 33.9919 36.2555 33.9919C35.1234 33.9938 33.9922 33.989 32.86 33.9938C30.9204 34.0015 29.5185 35.4063 29.5156 37.3516C29.5108 40.1688 29.5059 42.9861 29.5242 45.8033C29.5271 46.2032 29.6591 46.6011 29.7314 47H14.7695C14.6809 46.974 14.5922 46.9432 14.5026 46.9239C12.326 46.4633 10.8595 45.206 10.1869 43.0661C10.1079 42.8146 10.0617 42.5554 10 42.3011C10 41.6748 10 41.0485 10 40.4222ZM23.0088 40.3057C23.0088 40.7296 23.0011 41.1497 23.0107 41.5707C23.0252 42.1883 23.4925 42.6566 24.0831 42.6614C24.6728 42.6662 25.1507 42.2018 25.1739 41.589C25.1854 41.2884 25.1941 40.9859 25.171 40.6862C25.1507 40.4136 25.2326 40.2719 25.4966 40.1457C27.1732 39.3422 27.8371 37.3651 26.968 35.7426C26.3686 34.622 25.4032 34.0478 24.1323 33.9919C23.3817 33.9591 22.8662 33.3319 23.0386 32.6623C23.1764 32.1295 23.6669 31.7749 24.1939 31.8279C24.7403 31.8828 25.1276 32.3048 25.1758 32.9003C25.2307 33.5699 25.7115 34.0266 26.3234 33.989C26.9391 33.9514 27.3727 33.4466 27.338 32.7731C27.285 31.7518 26.9015 30.8114 26.0064 30.346C25.2018 29.9279 25.0852 29.3816 25.1758 28.6339C25.1767 28.6224 25.1758 28.6098 25.1758 28.5983C25.1565 27.9585 24.6892 27.4854 24.0822 27.4903C23.4771 27.496 23.0194 27.972 23.0097 28.6175C23.003 29.0261 23.0088 29.4346 23.0088 29.8441C22.9057 29.8913 22.817 29.9298 22.7313 29.9703C20.4458 31.0513 20.1779 34.12 22.2428 35.5759C22.8103 35.9757 23.4501 36.1453 24.1429 36.1675C24.6535 36.1838 25.0534 36.549 25.1584 37.0423C25.2529 37.4846 25.0158 37.975 24.5996 38.1956C24.1621 38.4278 23.6187 38.37 23.321 37.9779C23.1514 37.7543 23.0608 37.4441 23.0146 37.1608C22.9192 36.5741 22.4538 36.1386 21.8785 36.1626C21.3023 36.1877 20.8398 36.6579 20.8476 37.2524C20.8514 37.5376 20.8919 37.8305 20.968 38.105C21.2648 39.1793 21.9787 39.8827 23.0088 40.3076V40.3057Z" fill="url(#paint0_linear_2610_21145)"/>
    <path d="M30.8848 10C30.9329 10.0308 30.9792 10.0655 31.0293 10.0925C31.7442 10.4692 31.8946 11.2342 31.3559 11.8374C30.375 12.9338 29.4809 14.0929 28.7544 15.3753C28.5771 15.6885 28.4094 16.0083 28.2591 16.335C28.1782 16.5103 28.0828 16.5806 27.8804 16.5806C25.354 16.5729 22.8286 16.5787 20.3022 16.5672C20.1837 16.5672 20.0054 16.4641 19.9553 16.36C19.143 14.6912 18.06 13.2142 16.8267 11.8374C16.2871 11.2352 16.4393 10.4683 17.1533 10.0925C17.2044 10.0655 17.2506 10.0308 17.2988 10C17.6361 10 17.9733 10 18.3105 10C19.4967 10.1734 20.5884 10.5935 21.5384 11.3248C22.9943 12.4444 25.1729 12.4617 26.677 11.3075C27.3659 10.7785 28.1387 10.3825 28.9962 10.1821C29.2872 10.1147 29.5811 10.0597 29.873 10C30.2103 10 30.5475 10 30.8848 10Z" fill="url(#paint1_linear_2610_21145)"/>
    <path d="M47 39.6996C46.7129 40.3259 46.2157 40.508 45.545 40.5041C41.3797 40.4839 37.2152 40.4945 33.0498 40.4935C32.1586 40.4935 31.7529 40.086 31.752 39.1919C31.752 38.5656 31.7481 37.9403 31.7529 37.314C31.7587 36.6116 32.2039 36.1598 32.9053 36.1588C37.2152 36.1559 41.5242 36.1598 45.8341 36.154C46.4209 36.154 46.7553 36.4767 47 36.9517V39.6996Z" fill="url(#paint2_linear_2610_21145)"/>
    <path d="M32.5469 46.9981C31.9215 46.71 31.7018 46.2167 31.7442 45.5432C31.7809 44.968 31.7471 44.3889 31.7529 43.8108C31.7597 43.1123 32.2087 42.6633 32.9121 42.6633C37.2201 42.6604 41.5271 42.6653 45.8351 42.6585C46.4219 42.6585 46.7553 42.9813 47 43.4563V46.2022C46.8275 46.5597 46.5616 46.8237 46.2051 46.9971H32.5469V46.9981Z" fill="url(#paint3_linear_2610_21145)"/>
  </g>
  <defs>
    <filter id="filter0_d_2610_21145" x="0" y="0" width="57" height="57" filterUnits="userSpaceOnUse" color-interpolation-filters="sRGB">
      <feFlood flood-opacity="0" result="BackgroundImageFix"/>
      <feColorMatrix in="SourceAlpha" type="matrix" values="0 0 0 0 0 0 0 0 0 0 0 0 0 0 0 0 0 0 127 0" result="hardAlpha"/>
      <feOffset/>
      <feGaussianBlur stdDeviation="5"/>
      <feColorMatrix type="matrix" values="0 0 0 0 0.388235 0 0 0 0 0.87451 0 0 0 0 0.85098 0 0 0 0.25 0"/>
      <feBlend mode="normal" in2="BackgroundImageFix" result="effect1_dropShadow_2610_21145"/>
      <feBlend mode="normal" in="SourceGraphic" in2="effect1_dropShadow_2610_21145" result="shape"/>
    </filter>
    <linearGradient id="paint0_linear_2610_21145" x1="10" y1="10" x2="47" y2="47" gradientUnits="userSpaceOnUse">
      <stop stop-color="#24C3BC"/>
      <stop offset="1" stop-color="#ADFFFB"/>
    </linearGradient>
    <linearGradient id="paint1_linear_2610_21145" x1="10" y1="10" x2="47" y2="47" gradientUnits="userSpaceOnUse">
      <stop stop-color="#24C3BC"/>
      <stop offset="1" stop-color="#ADFFFB"/>
    </linearGradient>
    <linearGradient id="paint2_linear_2610_21145" x1="10" y1="10" x2="47" y2="47" gradientUnits="userSpaceOnUse">
      <stop stop-color="#24C3BC"/>
      <stop offset="1" stop-color="#ADFFFB"/>
    </linearGradient>
    <linearGradient id="paint3_linear_2610_21145" x1="10" y1="10" x2="47" y2="47" gradientUnits="userSpaceOnUse">
      <stop stop-color="#24C3BC"/>
      <stop offset="1" stop-color="#ADFFFB"/>
    </linearGradient>
    <clipPath id="clip0_2610_21145">
      <rect width="37" height="37" fill="white" transform="translate(10 10)"/>
    </clipPath>
  </defs>
</svg>