<svg xmlns="http://www.w3.org/2000/svg" width="60" height="70" viewBox="0 0 60 70" fill="none">
  <g filter="url(#filter0_d_136_2918)">
    <path fillRule="evenodd" clipRule="evenodd" d="M12.659 17.659C13.9429 16.3751 15.6843 15.6538 17.5 15.6538H22.5C23.5196 15.6538 24.3461 16.4804 24.3461 17.5C24.3461 18.5196 23.5196 19.3461 22.5 19.3461H17.5C16.6635 19.3461 15.8613 19.6784 15.2699 20.2699C14.6784 20.8613 14.3461 21.6635 14.3461 22.5V52.5C14.3461 53.3364 14.6784 54.1386 15.2699 54.7301C15.8613 55.3215 16.6635 55.6538 17.5 55.6538H42.5C43.3364 55.6538 44.1386 55.3215 44.7301 54.7301C45.3215 54.1386 45.6538 53.3364 45.6538 52.5V22.5C45.6538 21.6635 45.3215 20.8613 44.7301 20.2699C44.1386 19.6784 43.3364 19.3461 42.5 19.3461H37.5C36.4804 19.3461 35.6538 18.5196 35.6538 17.5C35.6538 16.4804 36.4804 15.6538 37.5 15.6538H42.5C44.3157 15.6538 46.057 16.3751 47.3409 17.659C48.6248 18.9429 49.3461 20.6842 49.3461 22.5V52.5C49.3461 54.3157 48.6248 56.057 47.3409 57.3409C46.057 58.6248 44.3157 59.3461 42.5 59.3461H17.5C15.6842 59.3461 13.9429 58.6248 12.659 57.3409C11.3751 56.057 10.6538 54.3157 10.6538 52.5V22.5C10.6538 20.6842 11.3751 18.9429 12.659 17.659Z" fill="url(#paint0_linear_136_2918)"/>
    <path fillRule="evenodd" clipRule="evenodd" d="M27.5 14.3461C26.6635 14.3461 25.8613 14.6784 25.2699 15.2699C24.6784 15.8613 24.3461 16.6635 24.3461 17.5C24.3461 18.3364 24.6784 19.1386 25.2699 19.7301C25.8613 20.3215 26.6635 20.6538 27.5 20.6538H32.5C33.3364 20.6538 34.1386 20.3215 34.7301 19.7301C35.3215 19.1386 35.6538 18.3364 35.6538 17.5C35.6538 16.6635 35.3215 15.8613 34.7301 15.2699C34.1386 14.6784 33.3364 14.3461 32.5 14.3461H27.5ZM22.659 12.659C23.9429 11.3751 25.6843 10.6538 27.5 10.6538H32.5C34.3157 10.6538 36.057 11.3751 37.3409 12.659C38.6248 13.9429 39.3461 15.6842 39.3461 17.5C39.3461 19.3157 38.6248 21.057 37.3409 22.3409C36.057 23.6248 34.3157 24.3461 32.5 24.3461H27.5C25.6843 24.3461 23.9429 23.6248 22.659 22.3409C21.3751 21.057 20.6538 19.3157 20.6538 17.5C20.6538 15.6842 21.3751 13.9429 22.659 12.659ZM30 28.1538C31.0196 28.1538 31.8461 28.9804 31.8461 30V30.6538H35C36.0196 30.6538 36.8461 31.4804 36.8461 32.5C36.8461 33.5196 36.0196 34.3461 35 34.3461H28.75C28.245 34.3461 27.7608 34.5467 27.4037 34.9037C27.0467 35.2608 26.8461 35.745 26.8461 36.25C26.8461 36.7549 27.0467 37.2391 27.4037 37.5962C27.7608 37.9532 28.245 38.1538 28.75 38.1538H31.25C32.7342 38.1538 34.1576 38.7434 35.207 39.7929C36.2565 40.8424 36.8461 42.2658 36.8461 43.75C36.8461 45.2342 36.2565 46.6576 35.207 47.707C34.299 48.615 33.1111 49.1788 31.8461 49.3143V50C31.8461 51.0196 31.0196 51.8461 30 51.8461C28.9804 51.8461 28.1538 51.0196 28.1538 50V49.3461H25C23.9804 49.3461 23.1538 48.5196 23.1538 47.5C23.1538 46.4804 23.9804 45.6538 25 45.6538H31.25C31.7549 45.6538 32.2391 45.4532 32.5962 45.0962C32.9532 44.7391 33.1538 44.2549 33.1538 43.75C33.1538 43.245 32.9532 42.7608 32.5962 42.4037C32.2391 42.0467 31.7549 41.8461 31.25 41.8461H28.75C27.2658 41.8461 25.8424 41.2565 24.7929 40.207C23.7434 39.1576 23.1538 37.7342 23.1538 36.25C23.1538 34.7658 23.7434 33.3424 24.7929 32.2929C25.7009 31.3849 26.8888 30.8211 28.1538 30.6856V30C28.1538 28.9804 28.9804 28.1538 30 28.1538Z" fill="url(#paint1_linear_136_2918)"/>
  </g>
  <defs>
    <filter id="filter0_d_136_2918" x="-10" y="-5" width="80" height="80" filterUnits="userSpaceOnUse" color-interpolation-filters="sRGB">
      <feFlood flood-opacity="0" result="BackgroundImageFix"/>
      <feColorMatrix in="SourceAlpha" type="matrix" values="0 0 0 0 0 0 0 0 0 0 0 0 0 0 0 0 0 0 127 0" result="hardAlpha"/>
      <feOffset/>
      <feGaussianBlur stdDeviation="5"/>
      <feColorMatrix type="matrix" values="0 0 0 0 0.388235 0 0 0 0 0.87451 0 0 0 0 0.85098 0 0 0 0.25 0"/>
      <feBlend mode="normal" in2="BackgroundImageFix" result="effect1_dropShadow_136_2918"/>
      <feBlend mode="normal" in="SourceGraphic" in2="effect1_dropShadow_136_2918" result="shape"/>
    </filter>
    <linearGradient id="paint0_linear_136_2918" x1="10.6538" y1="10.6538" x2="58.0873" y2="48.3458" gradientUnits="userSpaceOnUse">
      <stop stop-color="#24C3BC"/>
      <stop offset="1" stop-color="#ADFFFB"/>
    </linearGradient>
    <linearGradient id="paint1_linear_136_2918" x1="10.6538" y1="10.6538" x2="58.0873" y2="48.3458" gradientUnits="userSpaceOnUse">
      <stop stop-color="#24C3BC"/>
      <stop offset="1" stop-color="#ADFFFB"/>
    </linearGradient>
  </defs>
</svg>