<svg width="16" height="16" viewBox="0 0 16 16" fill="none" xmlns="http://www.w3.org/2000/svg">
<path d="M13.3341 9.33321C13.591 9.33334 13.8379 9.43226 14.0237 9.60948C14.2096 9.7867 14.3201 10.0286 14.3325 10.2852C14.3448 10.5417 14.258 10.7931 14.09 10.9873C13.922 11.1816 13.6858 11.3038 13.4301 11.3285L13.3341 11.3332H5.08147L6.04147 12.2932C6.22332 12.4744 6.32852 12.7186 6.3353 12.9752C6.34207 13.2318 6.24991 13.4812 6.07788 13.6717C5.90585 13.8623 5.66714 13.9793 5.41116 13.9987C5.15519 14.0181 4.90157 13.9383 4.70281 13.7759L4.62681 13.7072L2.07414 11.1539C1.42481 10.5045 1.84747 9.40921 2.73481 9.33721L2.82814 9.33321H13.3341ZM9.96081 2.29321C10.1357 2.11814 10.3693 2.01415 10.6165 2.00134C10.8636 1.98853 11.1067 2.06782 11.2988 2.22388L11.3748 2.29254L13.9275 4.84588C14.5768 5.49521 14.1541 6.59054 13.2668 6.66254L13.1735 6.66654H2.66747C2.41066 6.66642 2.16374 6.56749 1.97788 6.39027C1.79202 6.21305 1.68147 5.97111 1.66913 5.7146C1.65678 5.45808 1.7436 5.20665 1.91159 5.01241C2.07958 4.81816 2.31586 4.69599 2.57147 4.67121L2.66747 4.66654H10.9201L9.96014 3.70654C9.77287 3.51904 9.66769 3.26488 9.66769 2.99988C9.66769 2.73487 9.77354 2.48071 9.96081 2.29321Z" fill="#00C4DF"/>
</svg>
