<svg xmlns="http://www.w3.org/2000/svg" width="30" height="30" viewBox="0 0 30 30" fill="none">
<circle cx="15" cy="15" r="14" stroke="#F1F1F1" stroke-width="2"/>
<path d="M15.6152 17.8105H13.4375C13.444 17.2051 13.4961 16.6973 13.5938 16.2871C13.6914 15.8704 13.8542 15.4928 14.082 15.1543C14.3164 14.8158 14.6257 14.4577 15.0098 14.0801C15.3092 13.7936 15.5794 13.5234 15.8203 13.2695C16.0612 13.0091 16.2533 12.7357 16.3965 12.4492C16.5397 12.1562 16.6113 11.821 16.6113 11.4434C16.6113 11.0332 16.543 10.6849 16.4062 10.3984C16.2695 10.112 16.0677 9.89388 15.8008 9.74414C15.5404 9.5944 15.2148 9.51953 14.8242 9.51953C14.4987 9.51953 14.1927 9.58464 13.9062 9.71484C13.6198 9.83854 13.3887 10.0339 13.2129 10.3008C13.0371 10.5612 12.9427 10.9062 12.9297 11.3359H10.5762C10.5892 10.5156 10.7845 9.82552 11.1621 9.26562C11.5397 8.70573 12.0475 8.28581 12.6855 8.00586C13.3236 7.72591 14.0365 7.58594 14.8242 7.58594C15.6966 7.58594 16.4421 7.73568 17.0605 8.03516C17.679 8.32812 18.151 8.75781 18.4766 9.32422C18.8086 9.88411 18.9746 10.5612 18.9746 11.3555C18.9746 11.9284 18.8607 12.4492 18.6328 12.918C18.4049 13.3802 18.1087 13.8132 17.7441 14.2168C17.3796 14.6139 16.9857 15.0111 16.5625 15.4082C16.1979 15.7402 15.9505 16.1016 15.8203 16.4922C15.6901 16.8763 15.6217 17.3158 15.6152 17.8105ZM13.2422 20.8574C13.2422 20.5059 13.3626 20.2096 13.6035 19.9688C13.8444 19.7214 14.1732 19.5977 14.5898 19.5977C15.0065 19.5977 15.3353 19.7214 15.5762 19.9688C15.8171 20.2096 15.9375 20.5059 15.9375 20.8574C15.9375 21.209 15.8171 21.5085 15.5762 21.7559C15.3353 21.9967 15.0065 22.1172 14.5898 22.1172C14.1732 22.1172 13.8444 21.9967 13.6035 21.7559C13.3626 21.5085 13.2422 21.209 13.2422 20.8574Z" fill="#F1F1F1"/>
</svg>